<svg xmlns="http://www.w3.org/2000/svg" width="499.974" height="82.499" viewBox="0 0 703 116">
  <defs>
    <style>
      .cls-1 {
        fill-rule: evenodd;
      }
    </style>
  </defs>
  <path id="Strongher_Girls" data-name="Strongher Girls" class="cls-1" d="M28.9,40.877q-4.651,4.578-13.139,4.577A22.86,22.86,0,0,1,2.847,41.689,10.321,10.321,0,0,1,2.7,43.83Q2.4,44.864.632,44.863V29.583H2.847Q4.1,43.24,15.4,43.387a12.928,12.928,0,0,0,5.241-1.033q5.019-2.287,5.02-7.455a7.384,7.384,0,0,0-.96-3.691q-1.772-3.026-8.415-5.979-7.161-3.1-8.415-3.765Q0.927,17.551.927,11.35A10.159,10.159,0,0,1,3.88,4.116q4.429-4.429,12.4-4.429A24.124,24.124,0,0,1,28.092,2.566a5.272,5.272,0,0,1,.148-1.4Q28.534,0.056,30.307.056V12.974H28.092a11.083,11.083,0,0,0-2.067-7.013q-3.249-4.208-9.449-4.208A12.421,12.421,0,0,0,12,2.566,6.9,6.9,0,0,0,7.2,9.431,7.132,7.132,0,0,0,8.088,12.9q1.7,2.953,8.267,5.758,7.234,3.175,8.637,3.912,7.086,3.986,7.087,10.556A10.706,10.706,0,0,1,28.9,40.877h0Zm23.385,3.838V42.8H59.3V2.345H55.316q-5.685.443-8.046,7.677l-1.181,4.946H44.022L44.391,0.425H80.857l0.369,14.542H79.159l-1.181-4.946A1.02,1.02,0,0,1,77.9,9.579q-1.993-7.234-7.972-7.234H65.65V42.8h5.02a3.827,3.827,0,0,1,.738.074q1.18,0.221,1.181,1.845h-20.3Zm40.142,0V42.8h5.905V2.345H92.431V0.425h21.85a16.816,16.816,0,0,1,9.67,2.657,10.278,10.278,0,0,1,4.8,8.858,11.237,11.237,0,0,1-.959,4.5q-2.586,5.611-9.6,7.308L130.078,42.8h2.805a4.663,4.663,0,0,1,.886.074q0.885,0.221.886,1.845H123.508l-11.81-20.3h-7.013V42.8h5.831v1.919H92.431ZM104.685,2.345V22.275h7.6a9.107,9.107,0,0,0,5.832-1.993,9.989,9.989,0,0,0,3.69-8.267,10.9,10.9,0,0,0-.959-4.5q-2.436-5.166-8.784-5.167h-7.382Zm75.131,1.7q8.488,6.349,8.489,18.528,0,10.408-7.013,16.978a21.1,21.1,0,0,1-14.985,5.905,21.531,21.531,0,0,1-13.73-4.724q-8.193-6.495-8.193-18.454,0-10.334,6.939-16.757A21.7,21.7,0,0,1,166.529-.313a21.428,21.428,0,0,1,13.287,4.355h0ZM171.991,42.28q8.931-3.912,8.932-20Q180.849,1.9,166.307,1.754A16.714,16.714,0,0,0,162.4,2.2Q151.766,5,151.765,22.571a38.14,38.14,0,0,0,1.034,9.375q3.025,11.443,13.73,11.442a13.381,13.381,0,0,0,5.462-1.107h0ZM231.547,0.425H246.68V2.345h-5.906v42l-3.4.738L208.369,8.619V42.8h4.355a3.832,3.832,0,0,1,.738.074q1.18,0.221,1.181,1.845H199.51V42.8h5.906V2.345H199.51V0.425h10.261l28.051,34.989V2.345h-6.275V0.425ZM302.1,24.785V26.7h-5.537V44.716l-6.274-2.288a5.4,5.4,0,0,1-.96.59,20.753,20.753,0,0,1-10.039,2.436,21.921,21.921,0,0,1-13.73-4.724q-8.415-6.644-8.415-18.454,0-10.334,6.939-16.757A21.7,21.7,0,0,1,279.292-.313a22.125,22.125,0,0,1,9.892,2.288l6.422-1.329,0.369,14.321h-1.919q-1.772-6.126-3.987-9.006-3.4-4.208-11-4.208a16.717,16.717,0,0,0-3.913.443Q264.529,5,264.529,22.571q0.072,20.522,14.763,20.669a9.449,9.449,0,0,0,1.181-.074,13.8,13.8,0,0,0,9.892-4.946V26.7h-6.644V24.785H302.1Zm9.8,19.931V42.723h5.905V2.418H311.9V0.425H332.8V2.418h-5.906V20.8h20V2.418h-5.905V0.425h20.816V2.418h-5.832v40.3h3.913a2.424,2.424,0,0,1,1.919,1.993H340.989V42.723h5.905V23.013h-20V42.723H330.8a2.244,2.244,0,0,1,1.993,1.993H311.9ZM405.785,14.3l-1.4-4.577a12.062,12.062,0,0,0-.517-1.4q-2.362-5.9-8.046-5.905h-9.449V20.8h14.542v2.215H386.371V42.723h9.449a9.62,9.62,0,0,0,2.731-.369q3.837-1.18,5.758-6.939l1.476-4.577h1.92l-0.3,13.878H371.387V42.723h5.9V2.418h-5.9V0.425h36.022l0.3,13.878h-1.92Zm12.977,30.413V42.723h5.906V2.418h-5.906V0.425h23.77a17.319,17.319,0,0,1,9.891,2.731,10.24,10.24,0,0,1,4.872,8.858,12.037,12.037,0,0,1-.591,3.691q-2.067,5.979-9.6,7.972L458.7,42.8h1.55a5.481,5.481,0,0,1,.886.074q0.957,0.221.959,1.845l-12.4.074-11.22-20.3h-4.725V42.723h5.906v1.993H418.762Zm14.985-42.3V22.275h5.537a7.749,7.749,0,0,0,4.576-1.4q3.765-2.73,3.765-8.637a12.258,12.258,0,0,0-.738-4.281,7.884,7.884,0,0,0-8.046-5.536h-5.094ZM536.84,24.785V26.7H531.3V44.716l-6.274-2.288a5.44,5.44,0,0,1-.96.59,20.753,20.753,0,0,1-10.039,2.436A21.921,21.921,0,0,1,500.3,40.73q-8.415-6.644-8.415-18.454,0-10.334,6.939-16.757A21.7,21.7,0,0,1,514.031-.313a22.117,22.117,0,0,1,9.891,2.288l6.423-1.329,0.369,14.321h-1.92q-1.771-6.126-3.986-9.006-3.4-4.208-11-4.208A16.714,16.714,0,0,0,509.9,2.2Q499.268,5,499.267,22.571q0.073,20.522,14.764,20.669a9.449,9.449,0,0,0,1.181-.074A13.8,13.8,0,0,0,525.1,38.22V26.7H518.46V24.785h18.38Zm10.837,19.931V42.8h5.9V2.345h-5.9V0.425h18.085V2.345H559.93V42.8h3.913a3.832,3.832,0,0,1,.738.074q1.181,0.221,1.181,1.845H547.677Zm29.66,0V42.8h5.9V2.345h-5.9V0.425h21.849a16.819,16.819,0,0,1,9.671,2.657,10.28,10.28,0,0,1,4.8,8.858,11.239,11.239,0,0,1-.96,4.5q-2.585,5.611-9.6,7.308L614.983,42.8h2.805a4.663,4.663,0,0,1,.886.074q0.887,0.221.886,1.845H608.414L596.6,24.416H589.59V42.8h5.832v1.919H577.337ZM589.59,2.345V22.275h7.6a9.107,9.107,0,0,0,5.832-1.993,9.99,9.99,0,0,0,3.691-8.267,10.9,10.9,0,0,0-.96-4.5q-2.436-5.166-8.784-5.167H589.59Zm38.592,42.371V42.8h5.9V2.345h-5.9V0.425h18.454V2.345h-6.2V42.8h10.113a10.249,10.249,0,0,0,1.7-.148q4.134-.959,5.906-7.751l1.254-4.946h1.477l-0.369,14.763H628.182Zm71.809-3.838q-4.65,4.578-13.139,4.577a22.859,22.859,0,0,1-12.918-3.765,10.316,10.316,0,0,1-.148,2.141q-0.3,1.035-2.067,1.034V29.583h2.215q1.254,13.657,12.549,13.8a12.931,12.931,0,0,0,5.241-1.033q5.019-2.287,5.019-7.455a7.384,7.384,0,0,0-.959-3.691q-1.772-3.026-8.416-5.979-7.16-3.1-8.415-3.765-6.939-3.912-6.939-10.113a10.159,10.159,0,0,1,2.953-7.234q4.429-4.429,12.4-4.429a24.124,24.124,0,0,1,11.811,2.879,5.278,5.278,0,0,1,.148-1.4q0.294-1.107,2.067-1.107V12.974h-2.215a11.077,11.077,0,0,0-2.067-7.013q-3.249-4.208-9.448-4.208a12.42,12.42,0,0,0-4.577.812,6.9,6.9,0,0,0-4.8,6.865,7.127,7.127,0,0,0,.886,3.469q1.7,2.953,8.267,5.758,7.235,3.175,8.637,3.912,7.086,3.986,7.086,10.556a10.7,10.7,0,0,1-3.174,7.751h0Z"/>
  <path id="Coaching_Personal_Training" data-name="Coaching &amp; Personal Training" class="cls-1" d="M88.889,79.693q2.238,0.783,2.649-.783h0.727l-1.287,7.535-0.727.056q-0.112-7.013-7.05-6.995-3.861.019-7.256,3.786a19.61,19.61,0,0,0-4.458,8.785q-2.742,12.068,6.491,12.068a12.181,12.181,0,0,0,10.147-5.073l0.634,0.187A12.68,12.68,0,0,1,77.53,105.1a13.545,13.545,0,0,1-7.181-1.716,9.484,9.484,0,0,1-3.805-4.737,11.8,11.8,0,0,1-.28-6.565,17.384,17.384,0,0,1,3.264-6.771,18.238,18.238,0,0,1,6.136-4.887,17.337,17.337,0,0,1,7.89-1.865,15.9,15.9,0,0,1,5.334,1.138h0Zm23.733,9.084q1.846,2.574,1.026,6.659a11.953,11.953,0,0,1-3.861,6.826,10.177,10.177,0,0,1-6.771,2.873,6.59,6.59,0,0,1-5.651-2.556,7.953,7.953,0,0,1-1.268-6.49,12.437,12.437,0,0,1,3.749-6.864,10.263,10.263,0,0,1,6.975-2.872q4.066-.074,5.8,2.425h0Zm-9.55,1.026a17.924,17.924,0,0,0-2.331,6.174,12.473,12.473,0,0,0,.056,5.912q0.745,2.37,2.425,2.369,1.734,0,3.45-2.537a15.671,15.671,0,0,0,2.369-6.155,14.568,14.568,0,0,0,.056-6.1q-0.6-2.294-2.5-2.238-1.791.037-3.526,2.574h0Zm27.3-1.548a1.976,1.976,0,0,0,1.622.616q1.064-.018,2.462-2.369h0.672l-3.264,13.989q-0.692,2.631.037,2.8,1.287,0.261,2.238-4.215h0.877q-0.5,6.081-4.365,5.8a3.178,3.178,0,0,1-2.5-1.381,4.343,4.343,0,0,1-.2-3.581,9.536,9.536,0,0,1-2.518,3.637,5.243,5.243,0,0,1-3.861,1.362,4.283,4.283,0,0,1-3.88-2.574,9.519,9.519,0,0,1-.373-6.472,13.941,13.941,0,0,1,3.637-6.827,8.237,8.237,0,0,1,5.689-2.611,4.628,4.628,0,0,1,3.731,1.828h0Zm-6.062,1.66a18.186,18.186,0,0,0-2.257,5.111,19.006,19.006,0,0,0-.5,5.223q0.168,2.8,1.679,3.077,1.623,0.3,3.133-2a14.911,14.911,0,0,0,2.071-4.738l0.839-3.674q1.119-5.148-1.623-5.2-1.772-.093-3.338,2.2h0ZM152.888,87.1a3.821,3.821,0,0,1,1.772,1.679,3.543,3.543,0,0,1,.5,2.387,3.7,3.7,0,0,1-.708,1.772,1.971,1.971,0,0,1-1.418.783,1.408,1.408,0,0,1-1.1-.373,1.438,1.438,0,0,1-.317-1.1,2.854,2.854,0,0,1,.317-0.9,5.053,5.053,0,0,0,.69-1.884,1.651,1.651,0,0,0-.392-1.343A2.5,2.5,0,0,0,149.7,87.4a5.441,5.441,0,0,0-3.264,1.716,12.455,12.455,0,0,0-2.257,3.152,16.373,16.373,0,0,0-1.063,3.133q-1.511,7.666,2.444,8.356a5.265,5.265,0,0,0,4.29-1.231,14.065,14.065,0,0,0,3.916-4.961h0.821a14.273,14.273,0,0,1-4.047,5.5,8.85,8.85,0,0,1-5.6,1.922,6.429,6.429,0,0,1-5.595-2.574,8.548,8.548,0,0,1-.97-6.454,11.864,11.864,0,0,1,3.954-6.752,10.516,10.516,0,0,1,7.106-2.835,7.353,7.353,0,0,1,3.451.727h0Zm22.52,0.951q1.287,1.623.56,4.5L173.8,100.9q-0.69,2.722.037,2.872,1.324,0.261,2.276-4.309h0.933q-0.71,6.137-4.57,5.856A3.152,3.152,0,0,1,170,104.052q-0.783-1.212-.168-3.73l1.716-6.771q0.9-3.357.28-4.57a1.526,1.526,0,0,0-1.921-.933q-1.846.354-3.6,3.488-1.959,3.432-3.712,13.168H158.23l5.558-24.528q0.708-3.134-1.753-2.5l0.205-.671,7.032-1.6q-2.052,9.27-3.451,14.921,2.2-3.973,5.838-3.954a4.344,4.344,0,0,1,3.749,1.679h0Zm13.847-8.02a2.757,2.757,0,0,1-.858,2.014,2.838,2.838,0,0,1-4.066,0,2.816,2.816,0,0,1,0-4.047,2.6,2.6,0,0,1,2.033-.858,2.93,2.93,0,0,1,2.891,2.891h0Zm-6.024,10.8q0.615-2.63-.149-2.779-1.269-.28-2.108,4.215h-0.895q0.522-6.1,4.383-5.819a3.424,3.424,0,0,1,2.592,1.268q0.952,1.175.392,3.73l-2.07,9.1q-0.6,2.631.149,2.779,1.268,0.263,2.108-4.215h0.895q-0.5,6.1-4.383,5.82a3.509,3.509,0,0,1-2.593-1.269q-0.988-1.23-.392-3.73,0.9-3.842,1.381-6.118Zm15.917,0.8q2.425-5.26,6.51-5.26a4.406,4.406,0,0,1,3.749,1.679q1.287,1.623.559,4.5L207.8,100.9q-0.709,2.722.037,2.872,1.305,0.261,2.276-4.309h0.932q-0.708,6.137-4.569,5.856A3.191,3.191,0,0,1,204,104.052q-0.783-1.212-.168-3.73l1.716-6.771q0.9-3.357.28-4.57a1.526,1.526,0,0,0-1.921-.933q-1.846.354-3.6,3.488-1.959,3.432-3.712,13.168h-4.271l3.208-13.9q0.633-2.667-.056-2.835-1.231-.317-2.294,4.271h-0.9q0.784-6.267,4.794-5.875,3.357,0.28,2.07,5.26h0ZM230.155,88.2a2.113,2.113,0,0,0,1.6.671q1.194-.018,2.481-2.369h0.653L230.6,105.19a11.774,11.774,0,0,1-3.675,6.64,10.67,10.67,0,0,1-7.255,2.574,7.173,7.173,0,0,1-3.413-.821,3.938,3.938,0,0,1-1.716-1.716,3.66,3.66,0,0,1-.429-2.369,3.292,3.292,0,0,1,.746-1.772,1.873,1.873,0,0,1,1.455-.746,1.29,1.29,0,0,1,1.081.411,1.182,1.182,0,0,1,.3,1.119,3.834,3.834,0,0,1-.355.895,6.221,6.221,0,0,0-.764,1.809,1.547,1.547,0,0,0,.391,1.38,3.3,3.3,0,0,0,2.5.784,6.016,6.016,0,0,0,2.294-.466,5.876,5.876,0,0,0,1.735-1.157,6.376,6.376,0,0,0,1.249-1.772,19.643,19.643,0,0,0,1.53-4.364q1.082-4.365,1.4-5.633a9.518,9.518,0,0,1-2.518,3.656A5.154,5.154,0,0,1,221.314,105a4.327,4.327,0,0,1-3.917-2.555,9.829,9.829,0,0,1-.373-6.528,13.86,13.86,0,0,1,3.656-6.827,7.985,7.985,0,0,1,5.708-2.649,5.11,5.11,0,0,1,3.767,1.753h0Zm-6.1,1.735a17.242,17.242,0,0,0-2.257,5.111,19.1,19.1,0,0,0-.5,5.223q0.168,2.8,1.678,3.077,1.623,0.281,3.134-2a14.682,14.682,0,0,0,2.07-4.737l0.839-3.674q1.121-5.148-1.622-5.2-1.791-.074-3.339,2.2h0Zm30.529,0.541a5.961,5.961,0,0,0-.82,4.141,4.434,4.434,0,0,0,1.846,3.1l8.021-9.83a6.2,6.2,0,0,0-2.668-.485q-4.4,0-6.379,3.078h0Zm16.582,9.084a14.455,14.455,0,0,1-7.983,5.129,12.131,12.131,0,0,1-9.027-1.063,7.444,7.444,0,0,1-2.668-2.574,5.783,5.783,0,0,1-.858-3.264,11.377,11.377,0,0,1,1.045-3.73,17.5,17.5,0,0,1,2.443-4.029,16.522,16.522,0,0,1,6.622-5.3,7.892,7.892,0,0,1,5.614-.168,30,30,0,0,0,3.674-5.875,2.576,2.576,0,0,0,.317-1.735,10.682,10.682,0,0,0-.447-1.66,3.281,3.281,0,0,1-.075-2.276,1.658,1.658,0,0,1,1.436-1.063,1.568,1.568,0,0,1,1.511.821,2.61,2.61,0,0,1,.131,2.014,18.754,18.754,0,0,1-2.257,4.794,58.422,58.422,0,0,1-3.619,5.39L256.3,98.251A9.477,9.477,0,0,0,260.069,100a13.2,13.2,0,0,0,5.26.15,9.661,9.661,0,0,0,4.887-2.164q2.8-2.462,4.532-8.244a10.323,10.323,0,0,0-4.57-1.194q-2.722.075-2.723,2.5,0,1.754,1.343,1.865t1.623-1.94a1.035,1.035,0,0,1,1.1-1.1,0.888,0.888,0,0,1,.9.951,2.781,2.781,0,0,1-.784,2.052,2.555,2.555,0,0,1-1.921.858,3.043,3.043,0,0,1-2.462-.914,3.341,3.341,0,0,1-.727-2.238,5.921,5.921,0,0,1,.876-2.76,4.189,4.189,0,0,1,2.444-2.07q2.461-.82,6.379.858a15.761,15.761,0,0,0,5.633,1.585q2.74,0.019,2.723-2.5,0-1.753-1.343-1.865-1.343-.13-1.623,1.94a1.023,1.023,0,0,1-1.1,1.1,0.888,0.888,0,0,1-.9-0.951,2.921,2.921,0,0,1,.784-2.052,2.607,2.607,0,0,1,1.94-.858,2.882,2.882,0,0,1,2.443.914,2.962,2.962,0,0,1,.727,2.238,5.578,5.578,0,0,1-.876,2.761A4.47,4.47,0,0,1,282.19,91q-2.406.8-6.584-.933a25.389,25.389,0,0,1-4.439,9.494h0Zm50.412-20.629a5.9,5.9,0,0,1,4.906,2.164,5.662,5.662,0,0,1,1.044,5.2,9.063,9.063,0,0,1-3.432,5.185,9.357,9.357,0,0,1-5.912,2.145h-6.323l-1.642,7.126Q309.493,104,312.72,104l-0.168.709H301.51l0.168-.709a3.7,3.7,0,0,0,3.991-3.245l4.122-17.869q0.821-3.357-2.5-3.245l0.168-.709h14.119Zm-9.531,13.914h3.022a7.357,7.357,0,0,0,4.812-1.921,8.256,8.256,0,0,0,2.891-4.663,5.3,5.3,0,0,0-.746-4.644,4.542,4.542,0,0,0-3.935-1.865H315.07Zm33.824-5.484a3.293,3.293,0,0,1,1.492,3.04,5.07,5.07,0,0,1-1.213,3.171,8.236,8.236,0,0,1-2.928,2.313,19.119,19.119,0,0,1-3.768,1.4,24.749,24.749,0,0,1-4.066.653q-0.392,5.316,2.817,5.875a5.41,5.41,0,0,0,4.327-1.193,13.462,13.462,0,0,0,3.9-5h0.8a14.962,14.962,0,0,1-4.01,5.54,8.822,8.822,0,0,1-5.633,1.883,6.462,6.462,0,0,1-5.614-2.592,8.157,8.157,0,0,1-.97-6.416A12.127,12.127,0,0,1,334.96,89.3a12.778,12.778,0,0,1,3.414-2.108,10.182,10.182,0,0,1,3.655-.839,6.206,6.206,0,0,1,3.843,1.007h0Zm-8.17,3.3a15.707,15.707,0,0,0-2.275,6.454,15.2,15.2,0,0,0,4.308-.933,6,6,0,0,0,2.947-2.5,6.082,6.082,0,0,0,.895-4.551q-0.447-1.9-2.014-1.716-1.959.168-3.861,3.245h0Zm19.779-.466q1.119-3.022,3.581-3.562a4.338,4.338,0,0,1,2.648.186,4.387,4.387,0,0,1,2.052,1.548,3.612,3.612,0,0,1,.653,1.958,1.93,1.93,0,0,1-.373,1.436,1.544,1.544,0,0,1-1.306.429,1.623,1.623,0,0,1-1.044-.69,6.935,6.935,0,0,1-.579-1.306,5.391,5.391,0,0,0-.615-1.529,1.513,1.513,0,0,0-1.25-.672,2.726,2.726,0,0,0-2.089,1.082q-1.044,1.269-2.126,6.006l-2.238,9.625h-4.328L353.6,90.958q0.635-2.63-.037-2.8-1.269-.3-2.276,4.234h-0.9q0.746-5.894,4.439-5.838,2.8,0,2.649,3.637h0Zm25.318-2.5a3.732,3.732,0,0,1,1.231,1.884,3.568,3.568,0,0,1,.037,1.7,1.267,1.267,0,0,1-1.268.989,1.3,1.3,0,0,1-1.455-1.026,3.888,3.888,0,0,1-.075-1.175,3.78,3.78,0,0,0-.037-1.25,1.48,1.48,0,0,0-.616-0.951,3.7,3.7,0,0,0-2.126-.448q-2.556.112-3.227,1.791a2.344,2.344,0,0,0,.206,2.22,12.163,12.163,0,0,0,2.947,1.958,19.642,19.642,0,0,1,3.226,1.865,4.3,4.3,0,0,1,1.269,5,6.922,6.922,0,0,1-6.827,4.775,7.309,7.309,0,0,1-4.644-1.213,5.6,5.6,0,0,1-1.586-1.883,4.415,4.415,0,0,1-.391-2.388,2.76,2.76,0,0,1,.746-1.679,1.8,1.8,0,0,1,1.305-.5,1.436,1.436,0,0,1,1.045.485,1.406,1.406,0,0,1,.28,1.231,3.243,3.243,0,0,1-.56,1.305,3.267,3.267,0,0,0-.41,1.306,1.893,1.893,0,0,0,.5,1.306,4.2,4.2,0,0,0,2.257.988,6.163,6.163,0,0,0,3.3-.242,3.09,3.09,0,0,0,1.865-1.809,2.517,2.517,0,0,0-.038-2.034,3.061,3.061,0,0,0-1.305-1.306q-0.373-.224-2.574-1.306-1.176-.616-2.108-1.175a4.323,4.323,0,0,1-1.809-5.26,6.081,6.081,0,0,1,2.574-3.3,7.668,7.668,0,0,1,4.738-1.157,5.563,5.563,0,0,1,3.525,1.306h0Zm21.1,1.082q1.848,2.574,1.026,6.659a11.953,11.953,0,0,1-3.861,6.826,10.173,10.173,0,0,1-6.77,2.873,6.591,6.591,0,0,1-5.652-2.556,7.952,7.952,0,0,1-1.268-6.49,12.436,12.436,0,0,1,3.749-6.864,10.261,10.261,0,0,1,6.976-2.872q4.065-.074,5.8,2.425h0ZM394.352,89.8a17.9,17.9,0,0,0-2.332,6.174,12.485,12.485,0,0,0,.056,5.912q0.745,2.37,2.425,2.369,1.734,0,3.451-2.537a15.655,15.655,0,0,0,2.368-6.155,14.551,14.551,0,0,0,.056-6.1q-0.6-2.294-2.5-2.238-1.791.037-3.525,2.574h0Zm20.711,1.828q2.424-5.26,6.509-5.26a4.4,4.4,0,0,1,3.749,1.679q1.287,1.623.56,4.5l-2.164,8.356q-0.708,2.722.038,2.872,1.305,0.261,2.275-4.309h0.933q-0.709,6.137-4.57,5.856a3.191,3.191,0,0,1-2.481-1.268q-0.783-1.212-.168-3.73l1.716-6.771q0.9-3.357.28-4.57a1.526,1.526,0,0,0-1.921-.933q-1.846.354-3.6,3.488-1.958,3.432-3.712,13.168h-4.271l3.208-13.9q0.635-2.667-.056-2.835-1.23-.317-2.294,4.271H408.2q0.783-6.267,4.793-5.875,3.358,0.28,2.071,5.26h0Zm28.377-3.376a1.978,1.978,0,0,0,1.623.616q1.062-.018,2.462-2.369H448.2l-3.264,13.989q-0.69,2.631.037,2.8,1.287,0.261,2.238-4.215h0.877q-0.5,6.081-4.364,5.8a3.178,3.178,0,0,1-2.5-1.381,4.347,4.347,0,0,1-.205-3.581,9.536,9.536,0,0,1-2.518,3.637,5.243,5.243,0,0,1-3.861,1.362,4.281,4.281,0,0,1-3.879-2.574,9.518,9.518,0,0,1-.374-6.472,13.934,13.934,0,0,1,3.638-6.827,8.235,8.235,0,0,1,5.688-2.611,4.626,4.626,0,0,1,3.731,1.828h0Zm-6.062,1.66a18.186,18.186,0,0,0-2.257,5.111,19.044,19.044,0,0,0-.5,5.223q0.168,2.8,1.679,3.077,1.623,0.3,3.134-2a14.93,14.93,0,0,0,2.07-4.738l0.839-3.674q1.119-5.148-1.622-5.2-1.773-.093-3.339,2.2h0Zm17.074-12.907,7.069-1.6-5.838,25.18q-0.615,2.63.093,2.816,1.305,0.261,2.238-4.234h0.858q-0.5,6.081-4.364,5.8a3.6,3.6,0,0,1-2.686-1.268q-0.933-1.194-.373-3.731L456,80.178q0.745-3.134-1.753-2.5Zm49.33,1.921L502.757,85.1l-0.709.037q0.9-5.5-4.514-5.446h-4.178l-4.887,21.1Q487.742,104,491.025,104l-0.168.709H479.74l0.168-.709a3.712,3.712,0,0,0,4.01-3.208l4.887-21.1h-4.178q-5.409-.056-7.051,5.446l-0.671-.075,1.809-6.136h25.068ZM513.9,90.194q1.119-3.022,3.581-3.562a4.342,4.342,0,0,1,2.649.186,4.4,4.4,0,0,1,2.052,1.548,3.619,3.619,0,0,1,.652,1.958,1.926,1.926,0,0,1-.373,1.436,1.54,1.54,0,0,1-1.305.429,1.622,1.622,0,0,1-1.045-.69,7.015,7.015,0,0,1-.578-1.306,5.421,5.421,0,0,0-.615-1.529,1.513,1.513,0,0,0-1.25-.672,2.726,2.726,0,0,0-2.089,1.082q-1.045,1.269-2.126,6.006l-2.239,9.625h-4.327l3.134-13.747q0.633-2.63-.038-2.8-1.268-.3-2.275,4.234h-0.9q0.747-5.894,4.44-5.838,2.8,0,2.648,3.637h0Zm25.412-1.94a1.976,1.976,0,0,0,1.622.616Q542,88.851,543.4,86.5h0.672L540.8,100.489q-0.69,2.631.037,2.8,1.287,0.261,2.238-4.215h0.877q-0.5,6.081-4.365,5.8a3.178,3.178,0,0,1-2.5-1.381,4.343,4.343,0,0,1-.205-3.581,9.536,9.536,0,0,1-2.518,3.637,5.243,5.243,0,0,1-3.861,1.362,4.283,4.283,0,0,1-3.88-2.574,9.519,9.519,0,0,1-.373-6.472,13.941,13.941,0,0,1,3.637-6.827,8.237,8.237,0,0,1,5.689-2.611,4.628,4.628,0,0,1,3.731,1.828h0Zm-6.062,1.66a18.186,18.186,0,0,0-2.257,5.111,19.044,19.044,0,0,0-.5,5.223q0.168,2.8,1.679,3.077,1.623,0.3,3.133-2a14.911,14.911,0,0,0,2.071-4.738l0.839-3.674q1.119-5.148-1.623-5.2-1.772-.093-3.338,2.2h0Zm23.024-9.886a2.761,2.761,0,0,1-.858,2.014,2.838,2.838,0,0,1-4.066,0,2.816,2.816,0,0,1,0-4.047,2.6,2.6,0,0,1,2.033-.858,2.93,2.93,0,0,1,2.891,2.891h0Zm-6.025,10.8q0.615-2.63-.149-2.779-1.269-.28-2.108,4.215H547.1q0.522-6.1,4.383-5.819a3.426,3.426,0,0,1,2.593,1.268q0.951,1.175.391,3.73l-2.07,9.1q-0.6,2.631.149,2.779,1.269,0.263,2.108-4.215h0.895q-0.5,6.1-4.383,5.82a3.512,3.512,0,0,1-2.593-1.269q-0.988-1.23-.391-3.73,0.9-3.842,1.38-6.118Zm15.918,0.8q2.424-5.26,6.509-5.26a4.405,4.405,0,0,1,3.749,1.679q1.287,1.623.56,4.5L574.82,100.9q-0.71,2.722.037,2.872,1.306,0.261,2.276-4.309h0.933q-0.71,6.137-4.57,5.856a3.191,3.191,0,0,1-2.481-1.268q-0.783-1.212-.168-3.73l1.716-6.771q0.9-3.357.28-4.57a1.526,1.526,0,0,0-1.921-.933q-1.846.354-3.6,3.488-1.959,3.432-3.712,13.168h-4.271l3.208-13.9q0.635-2.667-.056-2.835-1.23-.317-2.294,4.271H559.3q0.783-6.267,4.793-5.875,3.357,0.28,2.071,5.26h0Zm24.1-11.6a2.757,2.757,0,0,1-.858,2.014,2.838,2.838,0,0,1-4.066,0,2.816,2.816,0,0,1,0-4.047,2.6,2.6,0,0,1,2.033-.858,2.93,2.93,0,0,1,2.891,2.891h0Zm-6.024,10.8q0.615-2.63-.149-2.779-1.269-.28-2.108,4.215H581.1q0.522-6.1,4.383-5.819a3.424,3.424,0,0,1,2.592,1.268q0.952,1.175.392,3.73l-2.07,9.1q-0.6,2.631.149,2.779,1.267,0.263,2.108-4.215h0.895q-0.5,6.1-4.383,5.82a3.509,3.509,0,0,1-2.593-1.269q-0.988-1.23-.392-3.73,0.9-3.842,1.381-6.118Zm15.917,0.8q2.425-5.26,6.51-5.26a4.406,4.406,0,0,1,3.749,1.679q1.287,1.623.559,4.5l-2.163,8.356q-0.709,2.722.037,2.872,1.305,0.261,2.276-4.309h0.932q-0.708,6.137-4.569,5.856a3.191,3.191,0,0,1-2.481-1.268q-0.783-1.212-.168-3.73l1.716-6.771q0.9-3.357.28-4.57a1.526,1.526,0,0,0-1.921-.933q-1.846.354-3.6,3.488-1.959,3.432-3.712,13.168h-4.271l3.208-13.9q0.633-2.667-.056-2.835-1.232-.317-2.294,4.271h-0.9q0.784-6.267,4.794-5.875,3.357,0.28,2.07,5.26h0ZM631.171,88.2a2.113,2.113,0,0,0,1.6.671q1.194-.018,2.481-2.369h0.653l-4.29,18.689a11.773,11.773,0,0,1-3.674,6.64,10.675,10.675,0,0,1-7.256,2.574,7.173,7.173,0,0,1-3.413-.821,3.938,3.938,0,0,1-1.716-1.716,3.66,3.66,0,0,1-.429-2.369,3.292,3.292,0,0,1,.746-1.772,1.873,1.873,0,0,1,1.455-.746,1.29,1.29,0,0,1,1.081.411,1.182,1.182,0,0,1,.3,1.119,3.834,3.834,0,0,1-.355.895,6.221,6.221,0,0,0-.764,1.809,1.547,1.547,0,0,0,.391,1.38,3.3,3.3,0,0,0,2.5.784,6.016,6.016,0,0,0,2.294-.466,5.876,5.876,0,0,0,1.735-1.157,6.355,6.355,0,0,0,1.249-1.772,19.643,19.643,0,0,0,1.53-4.364q1.082-4.365,1.4-5.633a9.518,9.518,0,0,1-2.518,3.656A5.154,5.154,0,0,1,622.33,105a4.327,4.327,0,0,1-3.917-2.555,9.829,9.829,0,0,1-.373-6.528,13.86,13.86,0,0,1,3.656-6.827,7.985,7.985,0,0,1,5.708-2.649,5.11,5.11,0,0,1,3.767,1.753h0Zm-6.1,1.735a17.242,17.242,0,0,0-2.257,5.111,19.1,19.1,0,0,0-.5,5.223q0.168,2.8,1.678,3.077,1.623,0.281,3.134-2a14.682,14.682,0,0,0,2.07-4.737l0.84-3.674q1.119-5.148-1.623-5.2-1.791-.074-3.339,2.2h0Z"/>
</svg>
